<?xml version="1.0" encoding="utf-8" ?><svg xmlns="http://www.w3.org/2000/svg" xmlns:xlink="http://www.w3.org/1999/xlink" width="1024" height="1024" viewBox="0 0 1024 1024"><path fill="#5113F1" transform="scale(2 2)" d="M253.738 59.3213C265.515 57.3034 269.786 65.886 274.088 74.0041C291.874 73.1238 293.465 76.352 307.931 83.9539C315.511 74.7186 328.047 70.6219 336.803 80.9875C341.829 86.9382 341.26 91.5811 340.786 98.7884C359.165 107.062 356.628 114.891 366.879 125.225C385.002 125.807 391.682 137.602 384.695 153.648C404.101 173.383 393.688 183.656 398.328 204.793C415.874 206.819 422.104 228.8 402.699 238.274C411.478 253.001 409.077 273.792 397.558 286.537C393.936 290.544 389.388 294.535 385.517 298.484C393.997 312.22 384.506 327.567 368.461 325.67C360.863 344.669 359.27 349.603 340.786 360.493C345.206 375.653 331.806 385.99 316.943 381.82C306.799 389.666 280.065 417.106 271.565 427.015C276.716 437.641 271.098 449.002 259.693 451.816C244.111 453.978 232.375 437.909 240.669 427.015C225.912 412.859 209.869 396.641 195.867 381.82C179.023 388.538 164.843 370.547 172.331 359.512C157.641 352.715 146.348 342.846 145.156 325.67L144.945 325.689C128.452 327.102 118.474 309.803 128.216 298.484C125.778 296.664 123.108 295.013 120.735 293.09C106.7 281.716 96.5256 253.391 108.783 238.274C92.7912 228.219 95.1221 209.958 112.729 204.793C113.378 201.516 114.628 197.184 114.771 194.039C115.544 176.993 112.775 167.642 128.216 153.648C117.652 141.344 128.143 126.056 144.577 125.225C151.979 111.751 158.64 104.387 172.331 97.1381C165.367 77.4036 194.639 66.5549 204.04 83.9539C212.358 75.1968 227.269 73.7584 238.547 74.0041C240.778 65.9446 245.253 60.6869 253.738 59.3213ZM265.737 327.973L265.737 420.668L268.719 422.705C275.776 415.98 281.944 409.391 288.778 402.594C296.556 394.749 305.23 386.389 312.787 378.493C306.6 373.45 305.256 366.989 307.322 359.512C303.424 356.431 300.419 353.19 296.946 349.696C294.732 347.469 271.473 324.172 270.473 323.664C268.956 325.056 267.292 326.652 265.737 327.973ZM257.365 228.345C262.9 227.541 266.75 222.423 265.988 216.883C265.226 211.342 260.138 207.453 254.592 208.173C248.986 208.901 245.046 214.056 245.816 219.656C246.586 225.257 251.771 229.157 257.365 228.345ZM321.66 270.947C316.156 272.126 312.61 277.496 313.689 283.021C314.767 288.545 320.072 292.188 325.615 291.21C329.292 290.562 332.332 287.979 333.566 284.456C334.8 280.932 334.036 277.017 331.567 274.216C329.099 271.416 325.311 270.166 321.66 270.947ZM190.361 290.541C195.87 289.469 199.447 284.111 198.326 278.612C197.205 273.113 191.814 269.583 186.326 270.754C180.906 271.91 177.431 277.217 178.539 282.647C179.646 288.076 184.922 291.599 190.361 290.541ZM187.947 208.973C182.265 209.61 178.162 214.713 178.759 220.399C179.357 226.085 184.431 230.223 190.121 229.666C195.867 229.102 200.056 223.967 199.453 218.225C198.849 212.482 193.685 208.329 187.947 208.973ZM323.12 229.533C328.641 229.267 332.913 224.596 332.687 219.074C332.46 213.551 327.82 209.246 322.296 209.434C316.716 209.623 312.358 214.32 312.587 219.899C312.816 225.477 317.544 229.801 323.12 229.533ZM250.96 330.214L250.96 418.002C253.863 417.909 258.599 418.2 260.981 418.002L260.981 330.214C257.11 330.487 254.904 330.487 250.96 330.214ZM188.109 145.843C184.47 146.123 181.262 148.336 179.709 151.64C178.156 154.943 178.499 158.825 180.606 161.806C182.713 164.786 186.259 166.404 189.891 166.042C195.418 165.491 199.473 160.595 198.985 155.062C198.497 149.529 193.648 145.418 188.109 145.843ZM224.452 403.625C230.371 409.533 237.818 416.613 243.34 422.705C244.466 421.802 244.967 421.406 246.255 420.668C246.704 390.579 247.218 358.033 246.255 327.973C245.636 327.118 243.364 324.024 242.492 323.664C238.044 326.105 229.517 335.54 225.449 339.652L215.571 349.637C212.055 353.161 208.547 356.237 205.927 360.493C204.117 367.955 209.187 369.615 200.263 379.08C202.891 382.322 207.044 386.232 210.068 389.219L224.452 403.625ZM258.351 146.899C263.671 145.578 266.925 140.207 265.634 134.879C264.344 129.551 258.992 126.265 253.657 127.525C248.277 128.795 244.958 134.201 246.26 139.573C247.561 144.945 252.986 148.232 258.351 146.899Z"/><path fill="#B1ACF8" transform="scale(2 2)" d="M128.216 234.23C142.392 245.431 160.986 263.432 173.872 276.272C173.402 279.997 173.425 282.199 174.419 285.847C172.618 286.753 170.011 288.441 168.162 289.5L154.662 297.174L152.799 295.262C145.673 290.355 138.216 289.339 131.203 295.262C129.182 293.389 126.364 291.194 124.173 289.554C107.609 277.156 105.24 257.242 112.729 239.256C119.539 239.678 123.036 238.544 128.216 234.23Z"/><path fill="#B1ACF8" transform="scale(2 2)" d="M383.334 233.032C388.155 237.415 391.814 239.269 398.328 239.256C404.608 255.486 405.857 269.825 392.985 283.981C389.473 287.843 385.546 291.172 382.282 295.262C374.464 289.675 366.928 289.403 359.163 295.262L356.955 297.174C353.267 294.575 342.306 287.635 338.374 285.847C339.068 281.751 338.932 280.241 338.374 276.272C353.468 262.789 367.938 246.51 383.334 233.032Z"/><path fill="#B1ACF8" transform="scale(2 2)" d="M265.737 229.946C266.057 230.181 268.301 232.692 268.734 233.136C282.286 247.062 297.065 260.245 310.337 274.401C309.042 277.715 308.835 282.414 309.51 285.847C304.136 288.739 298.716 291.43 293.415 294.309C288.064 296.645 275.834 301.894 271.565 304.965C267.861 299.613 265.015 297.239 258.545 296.06L258.545 233.032C261.808 232.321 262.759 231.66 265.737 229.946Z"/><path fill="#B1ACF8" transform="scale(2 2)" d="M246.255 229.946C249.683 231.523 249.697 232.268 253.738 233.032L253.738 296.06C247.983 297.012 243.475 299.779 240.669 304.965C234.386 301.33 226.501 297.61 219.891 294.309C214.063 291.255 208.794 288.507 202.722 285.847C203.652 281.714 203.366 278.549 202.722 274.401C204.969 270.823 208.943 267.613 212.045 264.538L236.628 239.945C239.487 237.062 244.138 233.071 246.255 229.946Z"/><path fill="#B1ACF8" transform="scale(2 2)" d="M200.263 290.206C211.024 294.612 228.504 303.511 238.547 309.472C238.366 312.878 238.256 315.529 239.342 318.78C232.156 325.879 223.302 334.389 216.567 341.753C212.175 345.3 206.695 351.27 202.722 355.443C199.232 351.515 196.439 349.756 191.222 348.678L191.222 296.06C195.322 294.039 196.782 293.144 200.263 290.206Z"/><path fill="#B1ACF8" transform="scale(2 2)" d="M311.5 290.206C314.434 291.679 314.722 294.001 320.705 296.06L320.705 348.044C315.344 349.748 312.945 351.033 309.51 355.443L295.875 341.753L281.228 327.573C278.272 324.659 275.41 321.617 272.388 318.78C273.529 315.227 273.75 313.142 273.277 309.472C286.078 302.865 298.598 297.403 311.5 290.206Z"/><path fill="#B1ACF8" transform="scale(2 2)" d="M268.719 144.76C274.584 145.056 300.858 154.409 307.322 156.829C307.812 159.862 308.157 161.065 309.51 163.849C301.767 171.003 289.131 183.217 282.558 191.042C278.548 193.665 269.672 203.364 266.55 207.297C264.038 205.469 261.542 204.196 258.545 203.369L258.545 151.961C263.631 150.96 265.434 148.331 268.719 144.76Z"/><path fill="#B1ACF8" transform="scale(2 2)" d="M242.492 144.76C243.288 144.949 247.674 150.508 253.738 151.961L253.738 203.369C250.461 204.368 248.915 205.233 246.255 207.297C240.83 202.257 235.258 196.268 229.821 191.042C223.167 184.999 208.049 167.937 201.446 163.849C202.741 161.735 203.304 159.753 204.04 157.402C207.548 156.55 211.474 155.033 214.975 153.897L242.492 144.76Z"/><path fill="#B1ACF8" transform="scale(2 2)" d="M204.04 100.724C208.2 101.793 239.252 124.296 244.491 128.206C241.712 132.413 241.3 134.898 241.248 139.837C238.651 140.449 226.597 144.878 224.452 145.872C219.838 146.921 208.508 150.996 204.04 152.979C201.63 146.497 198.51 142.343 191.222 141.231L191.222 110.115C197.566 107.8 200.638 106.667 204.04 100.724Z"/><path fill="#B1ACF8" transform="scale(2 2)" d="M336.479 290.206C342.401 293.263 349.215 298.645 354.843 301.226C350.739 310.714 354.393 319.886 363.445 324.567C358.616 337.506 358.248 339.902 347.928 350.065C344.576 352.293 341.899 354.169 338.374 356.11C335.912 351.434 330.754 348.408 325.539 348.044C326.258 332.247 326.067 311.889 325.539 296.06C330.984 295.384 332.474 293.69 336.479 290.206Z"/><path fill="#B1ACF8" transform="scale(2 2)" d="M307.322 100.724C309.069 101.4 310.784 107.797 320.705 110.115L320.705 141.231C313.601 142.264 310.704 145.76 307.931 151.961C302.389 150.163 292.704 146.752 287.319 145.872C284.64 144.276 273.486 140.28 270.473 139.837C270.423 134.57 270.157 132.757 267.361 128.206C279.513 118.697 294.572 109.8 307.322 100.724Z"/><path fill="#B1ACF8" transform="scale(2 2)" d="M176.394 290.206C178.873 290.897 180.262 294.066 186.441 295.262L186.441 348.678C180.648 349.975 178.974 350.809 174.419 354.514C170.263 352.837 167.238 352.09 164.311 348.678C155.108 345.914 151.137 332.875 149.533 324.567C158.743 319.252 160.967 310.977 157.709 301.226C163.777 297.692 170.733 294.197 176.394 290.206Z"/><path fill="#B1ACF8" transform="scale(2 2)" d="M177.231 165.444C180.634 168.158 182.561 169.203 186.441 171.067L186.441 204.793C179.109 205.821 175.976 210.899 173.872 217.365L139.856 217.365C137.666 217.439 135.773 217.421 133.579 217.365L129.991 211.863C131.931 209.628 134.376 207.083 136.577 205.091C150.522 192.472 163.267 177.935 177.231 165.444Z"/><path fill="#B1ACF8" transform="scale(2 2)" d="M334.662 165.444C336.347 166.074 376.585 207.145 382.282 211.863C381.282 213.75 380.604 215.313 380.053 217.365C377.785 217.431 375.577 217.395 373.311 217.365L337.439 217.365C336.36 211.109 332.096 205.77 325.539 204.793L325.539 171.067C329.469 169.949 331.59 168.08 334.662 165.444Z"/><path fill="#B1ACF8" transform="scale(2 2)" d="M133.579 222.222L174.419 222.222C175.891 229.347 180.105 232.029 186.441 234.23L186.441 265.875C184.295 266.381 182.946 266.817 180.932 267.652C178.548 268.99 178.113 269.489 176.394 271.6C161.471 258.701 145.142 244.003 131.203 229.946C132.843 226.996 133.134 225.533 133.579 222.222Z"/><path fill="#B1ACF8" transform="scale(2 2)" d="M337.439 222.222L380.053 222.222C379.981 225.131 379.94 226.03 381.451 228.48C377.69 231.069 373.706 235.339 370.31 238.607L352.836 255.375C347.879 260.126 341.126 266.683 336.479 271.6C332.537 268.402 330.526 266.872 325.539 265.875L325.539 234.23C332.251 231.81 335.389 229.32 337.439 222.222Z"/><path fill="#B1ACF8" transform="scale(2 2)" d="M157.709 152.979C159.474 153.95 170.7 156.415 173.872 157.402L174.419 161.253L145.401 189.925C140.293 194.902 133.395 200.986 128.875 206.081C127.993 206.918 127.388 207.614 126.592 208.521C123.602 206.599 121.231 205.68 117.843 204.793C122.735 184.834 113.209 175.629 131.203 156.829C140.658 165.067 149.871 159.788 157.709 152.979Z"/><path fill="#B1ACF8" transform="scale(2 2)" d="M354.843 152.979L354.979 152.999C361.943 163.068 371.885 162.353 381.451 157.402C398.563 176.138 389.46 183.923 392.946 204.793C389.582 205.702 388.171 206.286 385.517 208.521C384.709 207.759 384.05 206.929 383.334 206.081C375.426 199.397 366.147 189.584 358.613 182.059L345.075 168.456C342.97 166.348 338.381 162.391 337.168 159.994C337.796 156.837 351.453 153.557 354.843 152.979Z"/><path fill="#B1ACF8" transform="scale(2 2)" d="M312.787 168.175C314.349 168.303 317.921 170.598 320.705 171.067L320.705 204.793C313.031 206.406 310.16 210.21 307.931 217.365L277.625 217.365C275.284 217.418 272.824 217.372 270.473 217.365C270.258 213.983 270.131 213.565 268.719 210.474C282.917 200.533 298.221 179.869 312.787 168.175Z"/><path fill="#B1ACF8" transform="scale(2 2)" d="M199.15 167.002C200.9 169.745 211.699 179.939 214.63 182.829L229.172 197.075C233.246 201.122 238.743 207.261 243.34 210.474C242.051 213.306 241.666 214.303 241.248 217.365L235.971 217.365L204.04 217.365C202.846 210.699 198.623 204.743 191.222 204.793L191.222 171.067C194.3 169.752 196.306 168.759 199.15 167.002Z"/><path fill="#B1ACF8" transform="scale(2 2)" d="M204.04 222.222L241.248 222.222C241.867 223.625 242.597 224.877 243.34 226.216C234.55 235.747 222.554 245.591 214.682 255.375C211.978 256.832 201.455 267.853 199.15 270.533C196.149 267.723 195.154 267.23 191.222 265.875C191.435 255.409 191.591 244.701 191.222 234.23C198.012 232.536 202.237 229.1 204.04 222.222Z"/><path fill="#B1ACF8" transform="scale(2 2)" d="M270.473 222.222L295.329 222.217C298.739 222.213 304.706 221.99 307.931 222.222C310.395 229.052 313.29 232.765 320.705 234.23L320.705 265.875C319.369 266.37 318.205 267.001 316.943 267.652C315.355 268.352 314.096 269.427 312.787 270.533C310.671 267.331 306.13 263.591 303.354 260.618C292.252 248.727 280.011 237.89 268.719 226.216C269.356 224.854 269.9 223.612 270.473 222.222Z"/><path fill="#B1ACF8" transform="scale(2 2)" d="M228.142 78.9803C230.339 78.405 236.157 78.8461 238.547 78.9803C240.265 87.4248 245.199 92.837 253.738 94.7993L253.738 122.753C251.019 123.372 250.488 123.693 248.219 125.225C245.711 122.948 241.411 119.983 238.547 117.807C228.52 111.594 218.836 104.383 209.22 97.5511C208.197 96.8245 207.076 96.2789 205.927 95.7861C206.533 92.404 206.565 90.6799 205.927 87.2911C214.098 83.0988 218.57 80.0645 228.142 78.9803Z"/><path fill="#B1ACF8" transform="scale(2 2)" d="M274.088 78.9803C290.758 78.5958 292.166 80.3047 306.467 88.6722C305.753 92.0806 305.783 92.3487 306.467 95.7861C297.216 100.853 288.709 107.923 279.897 113.753C275.331 116.87 267.573 121.848 263.545 125.225C261.631 123.836 260.848 123.333 258.545 122.753L258.545 94.7993C267.661 92.4552 271.529 87.7018 274.088 78.9803Z"/><path fill="#B1ACF8" transform="scale(2 2)" d="M173.872 101.957L174.31 102.04C177.94 107.062 180.711 108.298 186.441 110.115L186.446 129.75C186.466 133.665 186.643 137.306 186.441 141.231C180.113 142.432 175.783 146.748 174.419 152.979C171.283 151.701 167.603 150.79 164.311 149.912C162.878 149.498 160.566 149.054 159.048 148.712C161.13 139.049 158.254 132.108 149.533 127.095C153.397 116.741 164.115 106.717 173.872 101.957Z"/><path fill="#B1ACF8" transform="scale(2 2)" d="M337.439 102.742C353.892 110.34 352.744 114.677 362.267 127.095C355.361 131.586 350.081 139.454 352.836 147.928C350.753 148.596 349.87 148.939 347.928 149.912C344.654 150.685 340.792 152.028 337.439 152.979C335.01 146.876 332.056 143.156 325.539 141.231L325.539 110.115C330.667 109.527 334.232 106.509 337.439 102.742Z"/><path fill="#6366F1" transform="scale(2 2)" d="M368.683 130.012C373.421 129.6 378.014 131.769 380.706 135.69C383.397 139.61 383.771 144.676 381.683 148.95C379.596 153.223 375.37 156.042 370.623 156.329C363.417 156.764 357.199 151.327 356.668 144.128C356.137 136.928 361.491 130.638 368.683 130.012Z"/><path fill="#6366F1" transform="scale(2 2)" d="M322.01 79.7777C329.1 79.0806 335.422 84.2378 336.164 91.3228C336.906 98.4078 331.789 104.763 324.709 105.55C317.565 106.343 311.14 101.17 310.392 94.0216C309.643 86.8728 314.857 80.481 322.01 79.7777Z"/><path fill="#6366F1" transform="scale(2 2)" d="M253.253 64.2904C257.803 63.2673 262.551 64.7713 265.681 68.2272C268.812 71.6832 269.841 76.5563 268.375 80.9829C266.908 85.4095 263.174 88.7047 258.599 89.6081C251.653 90.9798 244.895 86.5145 243.432 79.5873C241.969 72.6601 246.346 65.8437 253.253 64.2904Z"/><path fill="#6366F1" transform="scale(2 2)" d="M140.534 130.612C147.548 129.636 154.028 134.522 155.02 141.533C156.012 148.545 151.142 155.036 144.133 156.045C137.1 157.057 130.582 152.167 129.586 145.132C128.591 138.097 133.497 131.59 140.534 130.612Z"/><path fill="#6366F1" transform="scale(2 2)" d="M368.136 296.109C375.064 294.561 381.93 298.939 383.45 305.873C384.969 312.807 380.564 319.655 373.623 321.146C366.723 322.629 359.923 318.254 358.412 311.36C356.902 304.466 361.249 297.648 368.136 296.109Z"/><path fill="#6366F1" transform="scale(2 2)" d="M186.752 79.8703C193.689 78.746 200.227 83.4502 201.366 90.3853C202.505 97.3204 197.814 103.868 190.881 105.021C183.928 106.178 177.357 101.47 176.215 94.515C175.073 87.5594 179.794 80.9979 186.752 79.8703Z"/><path fill="#6366F1" transform="scale(2 2)" d="M322.789 352.833C329.809 352.165 336.038 357.327 336.684 364.349C337.331 371.372 332.15 377.584 325.125 378.209C318.131 378.832 311.952 373.678 311.308 366.686C310.664 359.694 315.798 353.499 322.789 352.833Z"/><path fill="#6366F1" transform="scale(2 2)" d="M187.262 353.308C194.249 352.728 200.386 357.919 200.973 364.906C201.56 371.893 196.376 378.035 189.39 378.629C182.393 379.224 176.241 374.031 175.653 367.034C175.065 360.037 180.264 353.889 187.262 353.308Z"/><path fill="#6366F1" transform="scale(2 2)" d="M113.473 209.774C120.394 208.568 126.973 213.228 128.131 220.157C129.29 227.086 124.584 233.633 117.648 234.744C110.778 235.844 104.308 231.194 103.161 224.332C102.013 217.47 106.619 210.968 113.473 209.774Z"/><path fill="#6366F1" transform="scale(2 2)" d="M395.153 209.52C399.662 208.912 404.148 210.782 406.891 214.412C409.634 218.042 410.207 222.869 408.39 227.04C406.574 231.212 402.65 234.08 398.125 234.546C391.278 235.25 385.133 230.33 384.321 223.495C383.51 216.661 388.332 210.439 395.153 209.52Z"/><path fill="#6366F1" transform="scale(2 2)" d="M139.502 296.204C146.261 294.968 152.747 299.43 154.01 306.184C155.273 312.938 150.838 319.443 144.09 320.734C137.301 322.032 130.751 317.566 129.48 310.772C128.209 303.978 132.703 297.446 139.502 296.204Z"/><path fill="#6366F1" transform="scale(2 2)" d="M254.871 300.781C261.76 300.1 267.885 305.164 268.511 312.059C269.138 318.954 264.026 325.038 257.126 325.61C250.303 326.176 244.3 321.133 243.681 314.314C243.061 307.496 248.057 301.454 254.871 300.781Z"/><path fill="#6366F1" transform="scale(2 2)" d="M252.929 423.017C257.298 421.973 261.891 423.376 264.931 426.683C267.972 429.99 268.986 434.684 267.58 438.951C266.174 443.218 262.57 446.39 258.159 447.243C251.541 448.522 245.114 444.277 243.691 437.689C242.269 431.1 246.372 424.582 252.929 423.017Z"/><path fill="white" transform="scale(2 2)" d="M321.721 145.838C325.449 145.568 329.031 147.336 331.083 150.461C333.637 154.349 333.271 159.467 330.189 162.952C327.107 166.437 322.072 167.426 317.9 165.366C313.729 163.306 311.453 158.708 312.347 154.142C313.24 149.576 317.08 146.174 321.721 145.838Z"/><path fill="white" transform="scale(2 2)" d="M321.721 145.838C325.449 145.568 329.031 147.336 331.083 150.461C330.711 150.313 330.411 150.209 330.03 150.087L329.682 150.581L329.247 150.65C328.069 150.04 322.122 146.643 321.721 145.838Z"/></svg>